<svg width="117" height="17" viewBox="0 0 117 17" fill="none" xmlns="http://www.w3.org/2000/svg">
<mask id="path-1-inside-1_50_135" fill="white">
<path d="M6.312 16L0.36 0.543999H6.408L9.312 9.136L12.24 0.543999H18.288L12.336 16H6.312Z"/>
<path d="M19.4963 16V0.543999H28.1843C29.5123 0.543999 30.6083 0.799999 31.4723 1.312C32.3363 1.808 32.9763 2.496 33.3923 3.376C33.8243 4.24 34.0403 5.224 34.0403 6.328C34.0403 7.368 33.7683 8.28 33.2243 9.064C32.6963 9.848 32.0563 10.496 31.3043 11.008C31.4803 11.12 31.6163 11.248 31.7123 11.392C31.8083 11.52 31.8883 11.656 31.9523 11.8L33.7763 16H27.7283L26.2163 12.568C26.1363 12.376 26.0483 12.248 25.9523 12.184C25.8563 12.104 25.7203 12.064 25.5443 12.064H25.3043V16H19.4963ZM25.3043 7.528H26.7203C27.6643 7.528 28.1363 7.128 28.1363 6.328C28.1363 5.88 28.0243 5.56 27.8003 5.368C27.5923 5.176 27.2643 5.08 26.8163 5.08H25.3043V7.528ZM33.6881 16L39.6401 0.543999H45.6641L51.6161 16H45.5681L44.4641 13.12H40.8401L39.7361 16H33.6881ZM41.4641 9.16H43.8161L42.6401 6.208L41.4641 9.16ZM53.8813 16V4.72H49.9453V0.543999H63.6253V4.72H59.6893V16H53.8813ZM69.8248 16.24C68.7368 16.24 67.6888 16.152 66.6808 15.976C65.6728 15.784 64.8248 15.512 64.1368 15.16V10.816C64.8888 11.184 65.7368 11.488 66.6808 11.728C67.6248 11.968 68.4648 12.088 69.2008 12.088C69.6808 12.088 70.0568 12.032 70.3288 11.92C70.6008 11.792 70.7368 11.616 70.7368 11.392C70.7368 11.104 70.4808 10.88 69.9688 10.72C69.4568 10.56 68.7848 10.328 67.9528 10.024C66.9608 9.64 66.1768 9.24 65.6008 8.824C65.0248 8.408 64.6088 7.912 64.3528 7.336C64.1128 6.744 63.9928 6.008 63.9928 5.128C63.9928 1.912 66.2568 0.303999 70.7848 0.303999C71.2968 0.303999 71.8648 0.343999 72.4888 0.423999C73.1288 0.487999 73.7448 0.575999 74.3368 0.688C74.9448 0.799999 75.4568 0.919999 75.8728 1.048V5.416C74.9928 5.048 74.2168 4.8 73.5448 4.672C72.8728 4.544 72.2808 4.48 71.7688 4.48C71.3688 4.48 70.9608 4.52 70.5448 4.6C70.1288 4.664 69.9208 4.824 69.9208 5.08C69.9208 5.288 70.1048 5.456 70.4728 5.584C70.8408 5.696 71.4248 5.864 72.2248 6.088C73.5048 6.44 74.4648 6.864 75.1048 7.36C75.7448 7.84 76.1688 8.416 76.3768 9.088C76.6008 9.744 76.7128 10.504 76.7128 11.368C76.7128 12.84 76.1368 14.024 74.9848 14.92C73.8328 15.8 72.1128 16.24 69.8248 16.24ZM77.9025 16V0.543999H83.7105V4.864L87.0945 0.543999H93.6465L88.3665 6.952L94.1265 16H87.9825L84.8145 10.624L83.7105 11.968V16H77.9025ZM99.1133 16V10.384L93.5213 0.543999H99.5693L102.017 5.464L104.465 0.543999H110.513L104.921 10.384V16H99.1133ZM111.113 16V0.543999H116.921V16H111.113Z"/>
</mask>
<path d="M6.312 16L5.3788 16.3594C5.52745 16.7454 5.89838 17 6.312 17V16ZM0.36 0.543999V-0.456001C0.0304613 -0.456001 -0.277922 -0.293648 -0.464429 -0.0219662C-0.650937 0.249715 -0.691622 0.595842 -0.573196 0.903366L0.36 0.543999ZM6.408 0.543999L7.35535 0.223804C7.21802 -0.182506 6.83689 -0.456001 6.408 -0.456001V0.543999ZM9.312 9.136L8.36465 9.45619C8.50183 9.86207 8.88232 10.1355 9.31075 10.136C9.73918 10.1365 10.1203 9.8641 10.2585 9.45857L9.312 9.136ZM12.24 0.543999V-0.456001C11.812 -0.456001 11.4315 -0.183661 11.2935 0.221432L12.24 0.543999ZM18.288 0.543999L19.2212 0.903366C19.3396 0.595842 19.2989 0.249715 19.1124 -0.0219662C18.9259 -0.293648 18.6175 -0.456001 18.288 -0.456001V0.543999ZM12.336 16V17C12.7496 17 13.1206 16.7454 13.2692 16.3594L12.336 16ZM7.2452 15.6406L1.2932 0.184631L-0.573196 0.903366L5.3788 16.3594L7.2452 15.6406ZM0.36 1.544H6.408V-0.456001H0.36V1.544ZM5.46065 0.864193L8.36465 9.45619L10.2594 8.81581L7.35535 0.223804L5.46065 0.864193ZM10.2585 9.45857L13.1865 0.866565L11.2935 0.221432L8.36545 8.81343L10.2585 9.45857ZM12.24 1.544H18.288V-0.456001H12.24V1.544ZM17.3548 0.184631L11.4028 15.6406L13.2692 16.3594L19.2212 0.903366L17.3548 0.184631ZM12.336 15H6.312V17H12.336V15ZM19.4963 16H18.4963C18.4963 16.5523 18.944 17 19.4963 17V16ZM19.4963 0.543999V-0.456001C18.944 -0.456001 18.4963 -0.00828603 18.4963 0.543999H19.4963ZM31.4723 1.312L30.9624 2.17237L30.9744 2.17925L31.4723 1.312ZM33.3923 3.376L32.4882 3.80338C32.4913 3.81003 32.4945 3.81664 32.4978 3.82321L33.3923 3.376ZM33.2243 9.064L32.4026 8.49386L32.3948 8.5054L33.2243 9.064ZM31.3043 11.008L30.7415 10.1814C30.4634 10.3707 30.2992 10.6872 30.3044 11.0235C30.3096 11.3599 30.4836 11.6711 30.7674 11.8517L31.3043 11.008ZM31.7123 11.392L30.8802 11.9467C30.8905 11.9621 30.9011 11.9772 30.9123 11.992L31.7123 11.392ZM31.9523 11.8L32.8695 11.4016L32.8661 11.3939L31.9523 11.8ZM33.7763 16V17C34.1132 17 34.4276 16.8303 34.6124 16.5485C34.7973 16.2667 34.8277 15.9108 34.6935 15.6017L33.7763 16ZM27.7283 16L26.8131 16.4032C26.9729 16.7659 27.3319 17 27.7283 17V16ZM26.2163 12.568L25.2932 12.9526C25.2958 12.9588 25.2984 12.965 25.3011 12.9712L26.2163 12.568ZM25.9523 12.184L25.3121 12.9522C25.3394 12.975 25.3679 12.9963 25.3975 13.016L25.9523 12.184ZM25.3043 12.064V11.064C24.752 11.064 24.3043 11.5117 24.3043 12.064H25.3043ZM25.3043 16V17C25.8565 17 26.3043 16.5523 26.3043 16H25.3043ZM25.3043 7.528H24.3043C24.3043 8.08028 24.752 8.528 25.3043 8.528V7.528ZM27.8003 5.368L27.122 6.1028C27.131 6.11112 27.1401 6.11927 27.1495 6.12726L27.8003 5.368ZM25.3043 5.08V4.08C24.752 4.08 24.3043 4.52771 24.3043 5.08H25.3043ZM20.4963 16V0.543999H18.4963V16H20.4963ZM19.4963 1.544H28.1843V-0.456001H19.4963V1.544ZM28.1843 1.544C29.389 1.544 30.2948 1.77667 30.9624 2.17229L31.9821 0.451707C30.9217 -0.176674 29.6355 -0.456001 28.1843 -0.456001V1.544ZM30.9744 2.17925C31.6657 2.57611 32.1616 3.11263 32.4882 3.80338L34.2963 2.94862C33.7909 1.87937 33.0068 1.03989 31.9701 0.444746L30.9744 2.17925ZM32.4978 3.82321C32.8511 4.52972 33.0403 5.35696 33.0403 6.328H35.0403C35.0403 5.09103 34.7974 3.95028 34.2867 2.92879L32.4978 3.82321ZM33.0403 6.328C33.0403 7.18344 32.82 7.89244 32.4027 8.49392L34.0458 9.63408C34.7165 8.66756 35.0403 7.55256 35.0403 6.328H33.0403ZM32.3948 8.5054C31.935 9.18811 31.3843 9.74375 30.7415 10.1814L31.867 11.8346C32.7282 11.2482 33.4575 10.5079 34.0537 9.6226L32.3948 8.5054ZM30.7674 11.8517C30.8496 11.904 30.8756 11.9398 30.8802 11.9467L32.5443 10.8373C32.3569 10.5562 32.1109 10.336 31.8411 10.1643L30.7674 11.8517ZM30.9123 11.992C30.9638 12.0608 31.0054 12.1319 31.0384 12.2061L32.8661 11.3939C32.7711 11.1801 32.6527 10.9792 32.5123 10.792L30.9123 11.992ZM31.035 12.1983L32.859 16.3983L34.6935 15.6017L32.8695 11.4017L31.035 12.1983ZM33.7763 15H27.7283V17H33.7763V15ZM28.6434 15.5968L27.1314 12.1648L25.3011 12.9712L26.8131 16.4032L28.6434 15.5968ZM27.1393 12.1834C27.0363 11.9361 26.853 11.5827 26.507 11.352L25.3975 13.016C25.3525 12.986 25.3208 12.9568 25.3008 12.9359C25.2808 12.9151 25.2698 12.8998 25.2662 12.8945C25.2604 12.886 25.2715 12.9005 25.2932 12.9526L27.1393 12.1834ZM26.5924 11.4158C26.2556 11.1351 25.8599 11.064 25.5443 11.064V13.064C25.5806 13.064 25.4569 13.0729 25.3121 12.9522L26.5924 11.4158ZM25.5443 11.064H25.3043V13.064H25.5443V11.064ZM24.3043 12.064V16H26.3043V12.064H24.3043ZM25.3043 15H19.4963V17H25.3043V15ZM25.3043 8.528H26.7203V6.528H25.3043V8.528ZM26.7203 8.528C27.3097 8.528 27.9382 8.40661 28.4288 7.9909C28.951 7.54832 29.1363 6.92948 29.1363 6.328H27.1363C27.1363 6.43185 27.1207 6.47789 27.1171 6.48696C27.116 6.48995 27.1223 6.47646 27.1357 6.4651C27.1543 6.44939 27.0748 6.528 26.7203 6.528V8.528ZM29.1363 6.328C29.1363 5.74064 28.9909 5.07151 28.451 4.60874L27.1495 6.12726C27.1088 6.09241 27.1018 6.06347 27.1084 6.08235C27.1174 6.10823 27.1363 6.18247 27.1363 6.328H29.1363ZM28.4785 4.6332C28.0038 4.19497 27.3757 4.08 26.8163 4.08V6.08C26.9729 6.08 27.0678 6.09725 27.1174 6.11174C27.1636 6.12528 27.1524 6.13092 27.122 6.1028L28.4785 4.6332ZM26.8163 4.08H25.3043V6.08H26.8163V4.08ZM24.3043 5.08V7.528H26.3043V5.08H24.3043ZM33.6881 16L32.7549 15.6406C32.6365 15.9482 32.6772 16.2943 32.8637 16.566C33.0502 16.8376 33.3586 17 33.6881 17V16ZM39.6401 0.543999V-0.456001C39.2265 -0.456001 38.8556 -0.201357 38.7069 0.184631L39.6401 0.543999ZM45.6641 0.543999L46.5973 0.184631C46.4487 -0.201357 46.0777 -0.456001 45.6641 -0.456001V0.543999ZM51.6161 16V17C51.9457 17 52.254 16.8376 52.4406 16.566C52.6271 16.2943 52.6677 15.9482 52.5493 15.6406L51.6161 16ZM45.5681 16L44.6344 16.3579C44.7826 16.7447 45.1539 17 45.5681 17V16ZM44.4641 13.12L45.3979 12.7621C45.2496 12.3753 44.8783 12.12 44.4641 12.12V13.12ZM40.8401 13.12V12.12C40.4259 12.12 40.0546 12.3753 39.9064 12.7621L40.8401 13.12ZM39.7361 16V17C40.1503 17 40.5216 16.7447 40.6699 16.3579L39.7361 16ZM41.4641 9.16L40.5351 8.78991C40.4124 9.09794 40.4504 9.44677 40.6365 9.72121C40.8225 9.99565 41.1325 10.16 41.4641 10.16V9.16ZM43.8161 9.16V10.16C44.1477 10.16 44.4577 9.99565 44.6438 9.72121C44.8299 9.44677 44.8678 9.09794 44.7451 8.78991L43.8161 9.16ZM42.6401 6.208L43.5691 5.83791C43.4176 5.45757 43.0495 5.208 42.6401 5.208C42.2307 5.208 41.8626 5.45757 41.7111 5.83791L42.6401 6.208ZM34.6213 16.3594L40.5733 0.903366L38.7069 0.184631L32.7549 15.6406L34.6213 16.3594ZM39.6401 1.544H45.6641V-0.456001H39.6401V1.544ZM44.7309 0.903366L50.6829 16.3594L52.5493 15.6406L46.5973 0.184631L44.7309 0.903366ZM51.6161 15H45.5681V17H51.6161V15ZM46.5019 15.6421L45.3979 12.7621L43.5304 13.4779L44.6344 16.3579L46.5019 15.6421ZM44.4641 12.12H40.8401V14.12H44.4641V12.12ZM39.9064 12.7621L38.8024 15.6421L40.6699 16.3579L41.7739 13.4779L39.9064 12.7621ZM39.7361 15H33.6881V17H39.7361V15ZM41.4641 10.16H43.8161V8.16H41.4641V10.16ZM44.7451 8.78991L43.5691 5.83791L41.7111 6.57809L42.8871 9.53009L44.7451 8.78991ZM41.7111 5.83791L40.5351 8.78991L42.3931 9.53009L43.5691 6.57809L41.7111 5.83791ZM53.8813 16H52.8813C52.8813 16.5523 53.329 17 53.8813 17V16ZM53.8813 4.72H54.8813C54.8813 4.16771 54.4336 3.72 53.8813 3.72V4.72ZM49.9453 4.72H48.9453C48.9453 5.27228 49.393 5.72 49.9453 5.72V4.72ZM49.9453 0.543999V-0.456001C49.393 -0.456001 48.9453 -0.00828603 48.9453 0.543999H49.9453ZM63.6253 0.543999H64.6253C64.6253 -0.00828603 64.1776 -0.456001 63.6253 -0.456001V0.543999ZM63.6253 4.72V5.72C64.1776 5.72 64.6253 5.27228 64.6253 4.72H63.6253ZM59.6893 4.72V3.72C59.137 3.72 58.6893 4.16771 58.6893 4.72H59.6893ZM59.6893 16V17C60.2416 17 60.6893 16.5523 60.6893 16H59.6893ZM54.8813 16V4.72H52.8813V16H54.8813ZM53.8813 3.72H49.9453V5.72H53.8813V3.72ZM50.9453 4.72V0.543999H48.9453V4.72H50.9453ZM49.9453 1.544H63.6253V-0.456001H49.9453V1.544ZM62.6253 0.543999V4.72H64.6253V0.543999H62.6253ZM63.6253 3.72H59.6893V5.72H63.6253V3.72ZM58.6893 4.72V16H60.6893V4.72H58.6893ZM59.6893 15H53.8813V17H59.6893V15ZM66.6808 15.976L66.4937 16.9583C66.4987 16.9593 66.5038 16.9602 66.5088 16.9611L66.6808 15.976ZM64.1368 15.16H63.1368C63.1368 15.5354 63.3471 15.8792 63.6813 16.0502L64.1368 15.16ZM64.1368 10.816L64.5764 9.91778C64.2664 9.76611 63.9002 9.78494 63.6075 9.9676C63.3147 10.1503 63.1368 10.4709 63.1368 10.816H64.1368ZM70.3288 11.92L70.7096 12.8447C70.7247 12.8384 70.7398 12.8318 70.7546 12.8248L70.3288 11.92ZM69.9688 10.72L70.2671 9.76552L70.2671 9.76552L69.9688 10.72ZM67.9528 10.024L67.5918 10.9566C67.5977 10.9589 67.6037 10.9611 67.6096 10.9633L67.9528 10.024ZM65.6008 8.824L66.1863 8.01332L66.1863 8.01332L65.6008 8.824ZM64.3528 7.336L63.4261 7.7117C63.4302 7.72192 63.4345 7.73207 63.439 7.74214L64.3528 7.336ZM72.4888 0.423999L72.3616 1.41588C72.3709 1.41706 72.3801 1.41811 72.3893 1.41904L72.4888 0.423999ZM74.3368 0.688L74.1509 1.67058L74.1557 1.67145L74.3368 0.688ZM75.8728 1.048H76.8728C76.8728 0.608995 76.5865 0.221326 76.1669 0.0922205L75.8728 1.048ZM75.8728 5.416L75.487 6.33858C75.7957 6.46766 76.1485 6.43382 76.427 6.24841C76.7055 6.06299 76.8728 5.75058 76.8728 5.416H75.8728ZM73.5448 4.672L73.7319 3.68966L73.7319 3.68966L73.5448 4.672ZM70.5448 4.6L70.6969 5.58837C70.7092 5.58648 70.7214 5.58436 70.7337 5.58201L70.5448 4.6ZM70.4728 5.584L70.1443 6.5285C70.1567 6.5328 70.1691 6.53686 70.1817 6.54067L70.4728 5.584ZM72.2248 6.088L71.9552 7.05097L71.9597 7.05221L72.2248 6.088ZM75.1048 7.36L74.4922 8.15041C74.4964 8.15364 74.5006 8.15684 74.5048 8.16L75.1048 7.36ZM76.3768 9.088L75.4215 9.38368C75.4244 9.39288 75.4274 9.40203 75.4305 9.41114L76.3768 9.088ZM74.9848 14.92L75.5919 15.7147L75.5988 15.7094L74.9848 14.92ZM69.8248 15.24C68.7909 15.24 67.8006 15.1564 66.8528 14.9909L66.5088 16.9611C67.5771 17.1476 68.6828 17.24 69.8248 17.24V15.24ZM66.8679 14.9937C65.9247 14.814 65.1732 14.567 64.5923 14.2698L63.6813 16.0502C64.4764 16.457 65.4209 16.754 66.4937 16.9583L66.8679 14.9937ZM65.1368 15.16V10.816H63.1368V15.16H65.1368ZM63.6973 11.7142C64.5201 12.1169 65.4343 12.4429 66.4344 12.6972L66.9272 10.7588C66.0393 10.5331 65.2575 10.2511 64.5764 9.91778L63.6973 11.7142ZM66.4344 12.6972C67.4347 12.9515 68.3599 13.088 69.2008 13.088V11.088C68.5697 11.088 67.8149 10.9845 66.9272 10.7588L66.4344 12.6972ZM69.2008 13.088C69.7392 13.088 70.2643 13.028 70.7096 12.8447L69.9481 10.9953C69.8493 11.036 69.6224 11.088 69.2008 11.088V13.088ZM70.7546 12.8248C71.2356 12.5985 71.7368 12.1385 71.7368 11.392H69.7368C69.7368 11.3452 69.7442 11.2889 69.7645 11.2291C69.7849 11.1692 69.8137 11.1192 69.8435 11.0806C69.9003 11.007 69.9437 10.996 69.903 11.0152L70.7546 12.8248ZM71.7368 11.392C71.7368 10.9068 71.5051 10.5195 71.2033 10.2554C70.9276 10.0142 70.5877 9.8657 70.2671 9.76552L69.6705 11.6745C69.7594 11.7022 69.8196 11.7275 69.8576 11.7464C69.8963 11.7658 69.9006 11.7731 69.8863 11.7606C69.8706 11.7469 69.8303 11.707 69.7944 11.6352C69.7565 11.5595 69.7368 11.4742 69.7368 11.392H71.7368ZM70.2671 9.76552C69.7767 9.61227 69.1214 9.3863 68.296 9.08473L67.6096 10.9633C68.4483 11.2697 69.1369 11.5077 69.6705 11.6745L70.2671 9.76552ZM68.3138 9.09143C67.3662 8.72462 66.6678 8.3611 66.1863 8.01332L65.0153 9.63468C65.6858 10.1189 66.5554 10.5554 67.5918 10.9566L68.3138 9.09143ZM66.1863 8.01332C65.735 7.68735 65.4421 7.32462 65.2666 6.92986L63.439 7.74214C63.7756 8.49938 64.3147 9.12865 65.0153 9.63468L66.1863 8.01332ZM65.2796 6.96029C65.1025 6.52352 64.9928 5.9246 64.9928 5.128H62.9928C62.9928 6.0914 63.1231 6.96448 63.4261 7.7117L65.2796 6.96029ZM64.9928 5.128C64.9928 3.7851 65.4465 2.91009 66.2699 2.32529C67.1561 1.69584 68.6088 1.304 70.7848 1.304V-0.696001C68.4328 -0.696001 66.4895 -0.28384 65.1118 0.694711C63.6711 1.71791 62.9928 3.2549 62.9928 5.128H64.9928ZM70.7848 1.304C71.246 1.304 71.7707 1.34012 72.3616 1.41588L72.616 -0.567883C71.9589 -0.652119 71.3476 -0.696001 70.7848 -0.696001V1.304ZM72.3893 1.41904C73.0023 1.48033 73.5894 1.56433 74.1509 1.67057L74.5227 -0.29457C73.9003 -0.41233 73.2554 -0.504334 72.5883 -0.571038L72.3893 1.41904ZM74.1557 1.67145C74.7399 1.77909 75.2116 1.89081 75.5787 2.00378L76.1669 0.0922205C75.702 -0.0508144 75.1497 -0.179087 74.518 -0.295454L74.1557 1.67145ZM74.8728 1.048V5.416H76.8728V1.048H74.8728ZM76.2586 4.49342C75.3376 4.10828 74.4928 3.83459 73.7319 3.68966L73.3577 5.65434C73.9408 5.76541 74.648 5.98772 75.487 6.33858L76.2586 4.49342ZM73.7319 3.68966C73.0174 3.55356 72.3605 3.48 71.7688 3.48V5.48C72.2011 5.48 72.7282 5.53444 73.3577 5.65434L73.7319 3.68966ZM71.7688 3.48C71.3018 3.48 70.8306 3.52673 70.356 3.61799L70.7337 5.58201C71.0911 5.51327 71.4358 5.48 71.7688 5.48V3.48ZM70.3928 3.61163C70.1085 3.65536 69.7621 3.74845 69.4671 3.97538C69.1242 4.23911 68.9208 4.63253 68.9208 5.08H70.9208C70.9208 5.15535 70.9044 5.25281 70.8542 5.35321C70.8044 5.45283 70.7388 5.52039 70.6865 5.56062C70.5995 5.62755 70.5652 5.60863 70.6969 5.58837L70.3928 3.61163ZM68.9208 5.08C68.9208 5.52022 69.1297 5.86776 69.3845 6.10049C69.617 6.31275 69.8967 6.44237 70.1443 6.5285L70.8013 4.6395C70.681 4.59763 70.6846 4.57925 70.7331 4.62351C70.7626 4.65043 70.8119 4.70385 70.8535 4.78895C70.8971 4.87791 70.9208 4.97865 70.9208 5.08H68.9208ZM70.1817 6.54067C70.5611 6.65616 71.1542 6.8267 71.9552 7.05096L72.4944 5.12504C71.6954 4.9013 71.1205 4.73584 70.764 4.62733L70.1817 6.54067ZM71.9597 7.05221C73.184 7.3889 74.0008 7.76956 74.4922 8.15041L75.7174 6.56958C74.9288 5.95844 73.8256 5.4911 72.49 5.12379L71.9597 7.05221ZM74.5048 8.16C75.0003 8.53161 75.2842 8.94001 75.4215 9.38368L77.3321 8.79232C77.0534 7.89199 76.4893 7.14839 75.7048 6.56L74.5048 8.16ZM75.4305 9.41114C75.6114 9.9411 75.7128 10.588 75.7128 11.368H77.7128C77.7128 10.42 77.5902 9.5469 77.3232 8.76486L75.4305 9.41114ZM75.7128 11.368C75.7128 12.5345 75.2768 13.426 74.3709 14.1306L75.5988 15.7094C76.9968 14.622 77.7128 13.1455 77.7128 11.368H75.7128ZM74.3778 14.1253C73.4753 14.8147 72.0118 15.24 69.8248 15.24V17.24C72.2138 17.24 74.1904 16.7853 75.5919 15.7147L74.3778 14.1253ZM77.9025 16H76.9025C76.9025 16.5523 77.3502 17 77.9025 17V16ZM77.9025 0.543999V-0.456001C77.3502 -0.456001 76.9025 -0.00828603 76.9025 0.543999H77.9025ZM83.7105 0.543999H84.7105C84.7105 -0.00828603 84.2628 -0.456001 83.7105 -0.456001V0.543999ZM83.7105 4.864H82.7105C82.7105 5.29057 82.9811 5.67018 83.3843 5.80931C83.7876 5.94844 84.2347 5.81647 84.4977 5.48066L83.7105 4.864ZM87.0945 0.543999V-0.456001C86.7871 -0.456001 86.4968 -0.31464 86.3073 -0.0726632L87.0945 0.543999ZM93.6465 0.543999L94.4183 1.17991C94.6644 0.881225 94.716 0.46735 94.5509 0.117331C94.3858 -0.232688 94.0335 -0.456001 93.6465 -0.456001V0.543999ZM88.3665 6.952L87.5947 6.31609C87.3194 6.65028 87.2904 7.12373 87.5229 7.48902L88.3665 6.952ZM94.1265 16V17C94.4915 17 94.8275 16.8011 95.0031 16.4811C95.1788 16.1611 95.1661 15.7709 94.9701 15.463L94.1265 16ZM87.9825 16L87.121 16.5077C87.3007 16.8128 87.6284 17 87.9825 17V16ZM84.8145 10.624L85.676 10.1163C85.5103 9.83498 85.2176 9.65232 84.892 9.62701C84.5664 9.6017 84.249 9.73693 84.0418 9.98926L84.8145 10.624ZM83.7105 11.968L82.9378 11.3333C82.7908 11.5122 82.7105 11.7365 82.7105 11.968H83.7105ZM83.7105 16V17C84.2628 17 84.7105 16.5523 84.7105 16H83.7105ZM78.9025 16V0.543999H76.9025V16H78.9025ZM77.9025 1.544H83.7105V-0.456001H77.9025V1.544ZM82.7105 0.543999V4.864H84.7105V0.543999H82.7105ZM84.4977 5.48066L87.8817 1.16066L86.3073 -0.0726632L82.9233 4.24734L84.4977 5.48066ZM87.0945 1.544H93.6465V-0.456001H87.0945V1.544ZM92.8747 -0.0919111L87.5947 6.31609L89.1383 7.58791L94.4183 1.17991L92.8747 -0.0919111ZM87.5229 7.48902L93.2829 16.537L94.9701 15.463L89.2101 6.41498L87.5229 7.48902ZM94.1265 15H87.9825V17H94.1265V15ZM88.844 15.4923L85.676 10.1163L83.953 11.1317L87.121 16.5077L88.844 15.4923ZM84.0418 9.98926L82.9378 11.3333L84.4832 12.6027L85.5872 11.2587L84.0418 9.98926ZM82.7105 11.968V16H84.7105V11.968H82.7105ZM83.7105 15H77.9025V17H83.7105V15ZM99.1133 16H98.1133C98.1133 16.5523 98.561 17 99.1133 17V16ZM99.1133 10.384H100.113C100.113 10.2108 100.068 10.0405 99.9827 9.88992L99.1133 10.384ZM93.5213 0.543999V-0.456001C93.1652 -0.456001 92.836 -0.266689 92.6569 0.0410486C92.4779 0.348786 92.4759 0.728528 92.6518 1.03808L93.5213 0.543999ZM99.5693 0.543999L100.465 0.098533C100.296 -0.241211 99.9487 -0.456001 99.5693 -0.456001V0.543999ZM102.017 5.464L101.122 5.90947C101.291 6.24921 101.638 6.464 102.017 6.464C102.397 6.464 102.744 6.24921 102.913 5.90947L102.017 5.464ZM104.465 0.543999V-0.456001C104.086 -0.456001 103.739 -0.241211 103.57 0.098533L104.465 0.543999ZM110.513 0.543999L111.383 1.03808C111.559 0.728528 111.557 0.348786 111.378 0.0410486C111.198 -0.266689 110.869 -0.456001 110.513 -0.456001V0.543999ZM104.921 10.384L104.052 9.88992C103.966 10.0405 103.921 10.2108 103.921 10.384H104.921ZM104.921 16V17C105.474 17 105.921 16.5523 105.921 16H104.921ZM100.113 16V10.384H98.1133V16H100.113ZM99.9827 9.88992L94.3907 0.0499165L92.6518 1.03808L98.2438 10.8781L99.9827 9.88992ZM93.5213 1.544H99.5693V-0.456001H93.5213V1.544ZM98.674 0.989464L101.122 5.90947L102.913 5.01853L100.465 0.098533L98.674 0.989464ZM102.913 5.90947L105.361 0.989464L103.57 0.098533L101.122 5.01853L102.913 5.90947ZM104.465 1.544H110.513V-0.456001H104.465V1.544ZM109.644 0.0499164L104.052 9.88992L105.791 10.8781L111.383 1.03808L109.644 0.0499164ZM103.921 10.384V16H105.921V10.384H103.921ZM104.921 15H99.1133V17H104.921V15ZM111.113 16H110.113C110.113 16.5523 110.561 17 111.113 17V16ZM111.113 0.543999V-0.456001C110.561 -0.456001 110.113 -0.00828603 110.113 0.543999H111.113ZM116.921 0.543999H117.921C117.921 -0.00828603 117.474 -0.456001 116.921 -0.456001V0.543999ZM116.921 16V17C117.474 17 117.921 16.5523 117.921 16H116.921ZM112.113 16V0.543999H110.113V16H112.113ZM111.113 1.544H116.921V-0.456001H111.113V1.544ZM115.921 0.543999V16H117.921V0.543999H115.921ZM116.921 15H111.113V17H116.921V15Z" fill="white" mask="url(#path-1-inside-1_50_135)"/>
</svg>
